<svg width="387" height="137" viewBox="0 0 387 137" fill="none" xmlns="http://www.w3.org/2000/svg">
<path d="M78.7435 84.2322C78.7435 85.4609 78.5259 86.7792 78.0908 88.1871C77.6812 89.5949 76.9901 90.9004 76.0174 92.1035C75.0702 93.3066 73.8287 94.3177 72.2929 95.1369C70.757 95.9304 68.8756 96.3271 66.6486 96.3271H28.7511C28.0343 96.3271 27.3688 96.1992 26.7544 95.9432C26.1401 95.6872 25.6025 95.3416 25.1418 94.9065C24.7066 94.4457 24.361 93.9082 24.1051 93.2938C23.8491 92.6795 23.7211 92.0139 23.7211 91.2972V46.2963C23.7211 45.6052 23.8491 44.9524 24.1051 44.3381C24.361 43.7237 24.7066 43.1862 25.1418 42.7254C25.6025 42.2647 26.1401 41.9063 26.7544 41.6503C27.3688 41.3943 28.0343 41.2663 28.7511 41.2663H62.1562C63.3849 41.2663 64.7031 41.4839 66.111 41.9191C67.5189 42.3542 68.8244 43.0582 70.0275 44.0309C71.2562 44.978 72.2673 46.2195 73.0608 47.7554C73.8799 49.2912 74.2895 51.1727 74.2895 53.3997V55.2811C74.2895 57.0474 73.9951 58.9544 73.4064 61.0022C72.8176 63.0244 71.8705 64.9443 70.565 66.7617C71.6913 67.4529 72.7408 68.2848 73.7136 69.2575C74.7119 70.2302 75.5822 71.3565 76.3245 72.6364C77.0669 73.9163 77.6556 75.3626 78.0908 76.9752C78.5259 78.5879 78.7435 80.3669 78.7435 82.3124V84.2322ZM68.7604 82.3124C68.7604 81.0069 68.5556 79.8422 68.146 78.8183C67.7365 77.7688 67.1605 76.8728 66.4182 76.1305C65.6759 75.3882 64.7799 74.825 63.7304 74.4411C62.6809 74.0315 61.5034 73.8267 60.1979 73.8267H37.6975V63.7668H55.7055C57.011 63.7668 58.1885 63.5748 59.238 63.1908C60.2875 62.7813 61.1834 62.2053 61.9258 61.463C62.6681 60.7206 63.2313 59.8375 63.6152 58.8136C64.0248 57.7641 64.2296 56.5866 64.2296 55.2811V53.3997C64.2296 51.9662 63.5384 51.2495 62.1562 51.2495H33.7042V86.344H66.6486C66.8278 86.344 67.0453 86.3312 67.3013 86.3056C67.5573 86.28 67.7877 86.2032 67.9925 86.0752C68.1972 85.9473 68.3764 85.7297 68.53 85.4225C68.6836 85.1153 68.7604 84.693 68.7604 84.1554V82.3124ZM104.584 96.3271H100.13C98.697 96.3271 97.1611 96.084 95.5229 95.5976C93.9102 95.1113 92.3999 94.3177 90.9921 93.217C89.5842 92.0907 88.4195 90.6444 87.498 88.8782C86.5764 87.0864 86.1157 84.8977 86.1157 82.3124V37.2731H96.0988V82.3124C96.0988 83.5411 96.4828 84.5266 97.2507 85.2689C98.0186 85.9856 98.9786 86.344 100.13 86.344H104.584V96.3271ZM156.151 82.3124C156.151 84.0274 155.934 85.5761 155.498 86.9584C155.063 88.315 154.487 89.5181 153.771 90.5676C153.054 91.5916 152.222 92.4747 151.275 93.217C150.328 93.9338 149.329 94.5225 148.28 94.9833C147.256 95.444 146.206 95.7896 145.131 96.02C144.082 96.2248 143.084 96.3271 142.136 96.3271H124.128C122.746 96.3271 121.236 96.084 119.598 95.5976C117.959 95.1113 116.436 94.3177 115.028 93.217C113.646 92.0907 112.481 90.6444 111.534 88.8782C110.613 87.0864 110.152 84.8977 110.152 82.3124V68.7967C110.152 66.237 110.613 64.074 111.534 62.3077C112.481 60.5159 113.646 59.0696 115.028 57.9689C116.436 56.8426 117.959 56.0363 119.598 55.5499C121.236 55.0635 122.746 54.8204 124.128 54.8204H142.136C144.696 54.8204 146.872 55.2811 148.664 56.2026C150.456 57.1242 151.902 58.2889 153.003 59.6967C154.103 61.079 154.897 62.5893 155.383 64.2275C155.895 65.8658 156.151 67.3889 156.151 68.7967V82.3124ZM146.168 68.8735C146.168 67.4913 145.822 66.4673 145.131 65.8018C144.44 65.1363 143.442 64.8035 142.136 64.8035H124.205C122.874 64.8035 121.863 65.1491 121.172 65.8402C120.481 66.5057 120.135 67.4913 120.135 68.7967V82.3124C120.135 83.6179 120.481 84.6162 121.172 85.3073C121.863 85.9984 122.874 86.344 124.205 86.344H142.136C143.493 86.344 144.504 85.9984 145.17 85.3073C145.835 84.6162 146.168 83.6179 146.168 82.3124V68.8735ZM204.877 96.3271H177.807C176.425 96.3271 174.914 96.084 173.276 95.5976C171.638 95.1113 170.115 94.3177 168.707 93.217C167.325 92.0907 166.16 90.6444 165.213 88.8782C164.291 87.0864 163.831 84.8977 163.831 82.3124V68.7967C163.831 67.8496 163.933 66.8513 164.138 65.8018C164.368 64.7523 164.714 63.7156 165.174 62.6917C165.635 61.6422 166.224 60.6439 166.941 59.6967C167.683 58.7496 168.566 57.9177 169.59 57.201C170.64 56.4842 171.843 55.9083 173.199 55.4731C174.556 55.0379 176.092 54.8204 177.807 54.8204H204.877V64.8035H177.807C176.501 64.8035 175.503 65.1363 174.812 65.8018C174.146 66.4673 173.814 67.4913 173.814 68.8735V82.3124C173.814 83.6179 174.159 84.6162 174.85 85.3073C175.541 85.9984 176.553 86.344 177.884 86.344H204.877V96.3271ZM261.896 96.3271H247.497L227.377 76.8984C226.251 75.8745 225.726 74.5946 225.803 73.0588C225.854 72.342 226.033 71.6765 226.34 71.0621C226.673 70.4222 227.121 69.8846 227.684 69.4495L245.923 54.7436H261.896L238.397 73.6731L261.896 96.3271ZM223.269 96.3271H213.285V37.2731H223.269V96.3271Z" fill="#166DFF"/>
<path d="M343.449 20H363.525C365.307 20 366.199 22.1543 364.939 23.4142L319.44 68.9129C318.659 69.694 318.659 70.9603 319.44 71.7414L364.939 117.24C366.199 118.5 365.307 120.654 363.525 120.654H343.449C342.388 120.654 341.37 120.233 340.62 119.483L294.293 73.1556C292.731 71.5935 292.731 69.0608 294.293 67.4987L340.62 21.1716C341.37 20.4214 342.388 20 343.449 20Z" fill="#166DFF"/>
<path d="M304.38 54.5838L294.733 44.9372C293.983 44.1871 292.965 43.7656 291.904 43.7656H271.828C270.046 43.7656 269.154 45.9199 270.414 47.1798L291.489 68.2549C291.78 67.4631 292.243 66.7202 292.879 66.0845L304.38 54.5838Z" fill="black"/>
<path d="M291.489 72.3994C291.78 73.1913 292.243 73.9341 292.879 74.5698L304.38 86.0705L294.733 95.7172C293.983 96.4673 292.965 96.8887 291.904 96.8887H271.828C270.046 96.8887 269.154 94.7344 270.414 93.4745L291.489 72.3994Z" fill="black"/>
</svg>
